<svg width="24" height="24" viewBox="0 0 24 24" fill="none" xmlns="http://www.w3.org/2000/svg">
    <path d="M4 4C4 3.44772 4.44772 3 5 3H9C9.55228 3 10 3.44772 10 4V8C10 8.55228 9.55228 9 9 9H5C4.44772 9 4 8.55228 4 8V4Z" stroke="#5c6ac4" stroke-width="2" stroke-linecap="round" stroke-linejoin="round"/>
    <path d="M14 4C14 3.44772 14.4477 3 15 3H19C19.5523 3 20 3.44772 20 4V8C20 8.55228 19.5523 9 19 9H15C14.4477 9 14 8.55228 14 8V4Z" stroke="#5c6ac4" stroke-width="2" stroke-linecap="round" stroke-linejoin="round"/>
    <path d="M4 14C4 13.4477 4.44772 13 5 13H9C9.55228 13 10 13.4477 10 14V18C10 18.5523 9.55228 19 9 19H5C4.44772 19 4 18.5523 4 18V14Z" stroke="#5c6ac4" stroke-width="2" stroke-linecap="round" stroke-linejoin="round"/>
    <path d="M14 14C14 13.4477 14.4477 13 15 13H19C19.5523 13 20 13.4477 20 14V18C20 18.5523 19.5523 19 19 19H15C14.4477 19 14 18.5523 14 18V14Z" stroke="#5c6ac4" stroke-width="2" stroke-linecap="round" stroke-linejoin="round"/>
</svg> 